<?xml version="1.0" ?><svg xmlns="http://www.w3.org/2000/svg" viewBox="0 0 64 64"><g id="Line"><path d="M54.915,53.0107C50.56,39.3789,43.1465,27.4829,37.6943,19.9033l-.0063.0046c-.0074-.0081-.0073-.0212-.0151-.029-1.62-1.6226-9.7061,6.3589-10.6231,7.2749S18.1475,36.15,19.7744,37.7773c.0189.0189.0473.03.0678.0477l-.0043.0061c10.9062,7.78,22.3779,13.69,33.1728,17.0913a1.5026,1.5026,0,0,0,.4522.0693,1.5277,1.5277,0,0,0,1.4521-1.981ZM30.1318,30.7651c.089-.0881.1777-.1737.2666-.2627.733-.7329,5.9815-6.0461,7.22-8.9768.3822.5415.7708,1.1,1.1676,1.68C38.5046,24.9326,36.36,37.5461,32.78,44.8946q-2.7447-1.5468-5.4755-3.2677C28.6714,37.5958,29.9312,31.7209,30.1318,30.7651ZM26.4343,41.08q-2.5017-1.5979-4.9754-3.3343a14.076,14.076,0,0,0,2.4171-1.502,54.2876,54.2876,0,0,0,4.9591-4.2219C28.3523,34.1824,27.4258,38.097,26.4343,41.08ZM39.5991,24.4087c1.4827,2.215,3.0344,4.6722,4.5835,7.3347-.1578,1.3135-1.29,9.8991-4.6191,16.7008q-2.9491-1.4286-5.9065-3.0659C36.9276,38.7,38.9681,28.0475,39.5991,24.4087Zm5.3983,8.7546c1.4646,2.5919,2.91,5.3553,4.2712,8.2653a35.2727,35.2727,0,0,1-3.0447,9.9773q-2.8641-1.16-5.7588-2.53A58.0278,58.0278,0,0,0,44.9974,33.1633ZM27.7568,27.8608c4.6407-4.6406,8.23-7.1259,9.1651-7.2309-.1045.9355-2.5908,4.5254-7.23,9.1655s-8.2305,7.1265-9.166,7.231C20.6309,36.0908,23.1162,32.5015,27.7568,27.8608ZM53.8311,53.8354a.5045.5045,0,0,1-.52.1329q-3.0452-.9594-6.1554-2.1847a33.5211,33.5211,0,0,0,2.849-8.74,98.2853,98.2853,0,0,1,3.9568,10.2714A.5093.5093,0,0,1,53.8311,53.8354ZM17.877,28.5166a.4983.4983,0,0,0,.4189.26l3.791.1464.02,0a.4994.4994,0,0,0,.4346-.747l-1.876-3.2979a.5.5,0,0,0-.4238-.2529l-3.6758-.0772a.5.5,0,0,0-.4492.7393Zm2.06-2.8965,1.291,2.27-2.6093-.101-1.212-2.2217ZM24.7754,20.77l3.2969,1.875a.5.5,0,0,0,.747-.4541L28.6729,18.4a.5013.5013,0,0,0-.2608-.4194L25.1836,16.22a.5.5,0,0,0-.7393.45l.0782,3.6763A.5.5,0,0,0,24.7754,20.77Zm2.9092-2.0468.1006,2.6084-2.2686-1.2906-.0537-2.53ZM19.0332,32.4932a.5.5,0,0,1-.458.538c-.0674.0054-6.7559.6119-8.5869,6.53a.5.5,0,0,1-.9551-.2959c2.0332-6.5742,9.3887-7.2251,9.4629-7.2309A.5034.5034,0,0,1,19.0332,32.4932ZM9.1689,30.25a.5.5,0,0,1-.0332-.7061,5.9868,5.9868,0,0,1,5.47-1.6508.5.5,0,0,1-.2217.9751A5.0633,5.0633,0,0,0,9.876,30.2168a.5005.5005,0,0,1-.7071.0332ZM32.0342,18.4961c.0058-.0742.6572-7.43,7.2314-9.4629a.5.5,0,1,1,.2949.9551c-5.9179,1.83-6.5244,8.519-6.53,8.5864a.4991.4991,0,0,1-.4971.46c-.0137,0-.0273-.0005-.041-.0015A.499.499,0,0,1,32.0342,18.4961Zm-4.1416-3.89a5.9855,5.9855,0,0,1,1.65-5.47.5.5,0,1,1,.6738.7393,5.0675,5.0675,0,0,0-1.35,4.51.5.5,0,0,1-.377.5971.508.508,0,0,1-.1113.0122A.4994.4994,0,0,1,27.8926,14.606Z"/></g></svg>